:SAMPLES-PER-SECOND 30
:FRAME-RANGE 1-564
:FULLY-SPECIFIED
:DEGREES
89
root  40.098 39.7689 154.824 168.225 -51.0511 -173.8
RightUpLeg  4.20591 22.3489 8.48991
RightLeg  23.5305 -14.732 -7.1221
RightFoot  -14.0778 0.0339677 5.41776
RightToes  -1.74624e-010 0 -3.6325e-017
Spine  13.2848 3.97752 5.6473
Spine1  0.686633 5.94216 -6.65124
HEad  29.7358 24.1831 -0.112517
LeftShoulder1  3.14112 -3.41881 -39.1908
LeftArm  18.8946 11.7923 -27.899
LeftForeArm  -6.6767 -10.6992 -15.2714
LeftHand  -1.43086 -4.07974 17.7046
RightShoulder  10.0514 8.81246 69.1199
RightArm  25.3469 2.32704 -2.97419
RightForeArm  13.3167 9.90509 12.8409
RightHand  0.628808 20.5522 2.28968
LeftUpLeg  -0.118267 4.30114 8.2358
LeftLeg  5.92134 -23.211 2.00586
LeftFoot  -4.24549 0.150178 -2.01059
LeftToes  -6.43926e-010 8.38805e-011 -3.16407e-011
90
root  39.5969 39.9249 154.939 168.162 -48.5591 -173.114
RightUpLeg  4.45988 15.2684 8.30592
RightLeg  17.7786 -13.7735 -5.24251
RightFoot  -13.7248 0.00178382 4.55859
RightToes  -1.74624e-010 0 -3.6325e-017
Spine  12.8495 4.10173 5.73336
Spine1  0.781102 6.02504 -6.30532
HEad  29.7326 25.548 -0.505024
LeftShoulder1  3.09915 -3.3605 -38.975
LeftArm  17.1888 11.5645 -28.081
LeftForeArm  -4.19622 -10.613 -15.0739
LeftHand  -1.67202 -3.75684 21.2848
RightShoulder  9.63258 8.30276 69.1004
RightArm  27.4025 1.7881 -2.85082
RightForeArm  11.8341 11.3756 12.1078
RightHand  0.688807 20.4771 2.56492
LeftUpLeg  1.38717 5.15614 8.80121
LeftLeg  4.07852 -21.7818 2.54994
LeftFoot  -3.97201 0.109762 -1.33344
LeftToes  -6.43926e-010 8.38805e-011 -3.16407e-011
91
root  39.1323 40.0095 154.983 168.294 -46.3297 -172.888
RightUpLeg  5.99288 5.73767 8.10797
RightLeg  10.4426 -7.32011 -3.36132
RightFoot  -13.16 -0.00195108 5.50089
RightToes  -1.74624e-010 0 -3.6325e-017
Spine  12.1368 4.36388 5.31577
Spine1  1.26983 6.15669 -5.82338
HEad  29.55 26.309 -0.652685
LeftShoulder1  3.09648 -3.42009 -38.5681
LeftArm  19.2784 10.8299 -27.6603
LeftForeArm  -5.57596 -11.0191 -15.0205
LeftHand  -1.69505 -4.63831 19.7458
RightShoulder  9.43133 8.0147 69.3016
RightArm  26.9127 1.47583 -2.94981
RightForeArm  11.8306 11.4213 12.0381
RightHand  0.671733 20.837 2.44559
LeftUpLeg  2.70496 5.75619 9.17888
LeftLeg  2.98254 -20.3758 2.60522
LeftFoot  -4.00443 0.0636391 -0.616589
LeftToes  -6.43926e-010 8.38805e-011 -3.16407e-011
92
root  38.689 40.0319 154.975 168.828 -44.3755 -173.419
RightUpLeg  8.65368 1.93457 7.66983
RightLeg  3.00951 -7.75088 -1.29868
RightFoot  -12.1538 -0.0363018 6.51912
RightToes  -1.74624e-010 0 -3.6325e-017
Spine  11.2919 4.71463 4.55211
Spine1  1.82054 6.34543 -5.50529
HEad  29.7797 26.7996 -0.656399
LeftShoulder1  3.13719 -3.50878 -38.5833
LeftArm  21.1591 10.0052 -27.0529
LeftForeArm  -6.71635 -11.0806 -15.1696
LeftHand  -1.7037 -5.01137 19.1599
RightShoulder  9.15769 7.65942 69.4065
RightArm  26.0112 1.32393 -2.99345
RightForeArm  11.9642 10.86 12.3225
RightHand  0.660089 20.4947 2.43519
LeftUpLeg  3.61758 6.28058 8.95268
LeftLeg  2.96477 -18.6999 2.13683
LeftFoot  -4.09194 -0.0128481 0.570096
LeftToes  -6.43926e-010 8.38805e-011 -3.16407e-011
93
root  38.2435 39.9935 154.92 170.018 -42.518 -174.845
RightUpLeg  11.0742 1.1572 6.78598
RightLeg  -3.11212 -10.2918 0.19162
RightFoot  -11.0692 -0.0864619 4.75665
RightToes  -1.74624e-010 0 -3.6325e-017
Spine  9.65487 4.27341 5.40119
Spine1  3.20982 6.59154 -8.60685
HEad  30.3248 28.1375 0.513865
LeftShoulder1  2.99784 -3.46354 -36.9384
LeftArm  22.5637 9.99376 -27.0668
LeftForeArm  -7.91203 -11.5082 -15.0349
LeftHand  -1.64114 -4.79425 18.8567
RightShoulder  9.85022 8.16085 71.0508
RightArm  23.298 1.5667 -3.3866
RightForeArm  14.2904 9.00036 13.1065
RightHand  0.614007 20.4769 2.23253
LeftUpLeg  4.24505 6.48969 7.88617
LeftLeg  3.46976 -16.1642 1.54552
LeftFoot  -4.5468 -0.0869053 1.71142
LeftToes  -6.43926e-010 8.38805e-011 -3.16407e-011
94
root  37.7895 39.9879 154.837 171.284 -40.2063 -176.544
RightUpLeg  12.7013 1.22602 6.18827
RightLeg  -7.02048 -9.56049 -0.427287
RightFoot  -5.11569 -0.154361 2.1979
RightToes  -1.74624e-010 0 -3.6325e-017
Spine  8.35439 4.60917 5.51583
Spine1  3.75946 7.21294 -9.90775
HEad  31.0558 28.9141 0.746305
LeftShoulder1  2.95909 -3.43206 -36.5858
LeftArm  25.1375 9.85942 -26.326
LeftForeArm  -9.32276 -11.9098 -14.9968
LeftHand  -1.59757 -4.7829 18.3915
RightShoulder  9.88121 8.14367 71.3132
RightArm  21.7475 1.55405 -3.4034
RightForeArm  16.3077 7.37072 13.6898
RightHand  0.640575 20.439 2.35505
LeftUpLeg  5.79272 6.67224 6.7147
LeftLeg  2.3546 -13.7306 1.10045
LeftFoot  -4.32385 -0.139902 2.5275
LeftToes  -6.43926e-010 8.38805e-011 -3.16407e-011
95
root  37.3402 39.9841 154.767 172.03 -37.9371 -178.015
RightUpLeg  13.6049 0.632506 4.9223
RightLeg  -7.9166 -7.72564 -1.2539
RightFoot  -2.77606 -0.130652 1.49171
RightToes  -1.74624e-010 0 -3.6325e-017
Spine  7.67332 4.97692 5.69647
Spine1  3.88238 7.72118 -10.5266
HEad  31.6659 29.6825 0.59283
LeftShoulder1  2.96708 -3.38939 -36.9536
LeftArm  29.7379 9.85656 -25.0756
LeftForeArm  -13.3997 -13.1598 -14.5634
LeftHand  -1.54821 -4.62671 18.1078
RightShoulder  9.7523 8.06718 70.9406
RightArm  21.1042 1.60049 -3.42718
RightForeArm  17.4103 6.11122 14.194
RightHand  0.601986 20.531 2.17315
LeftUpLeg  7.94552 6.75154 5.53415
LeftLeg  0.537963 -11.2801 0.85854
LeftFoot  -4.05032 -0.191431 3.33259
LeftToes  -6.43926e-010 8.38805e-011 -3.16407e-011
